<svg width="16" height="16" viewBox="0 0 16 16" fill="none" xmlns="http://www.w3.org/2000/svg">
	<mask id="mask0_8_5935" style="mask-type:alpha" maskUnits="userSpaceOnUse" x="0" y="0" width="16" height="16">
		<rect width="16" height="16" fill="#D9D9D9" />
	</mask>
	<g mask="url(#mask0_8_5935)">
		<path d="M7.99984 7.99992C8.3665 7.99992 8.68039 7.86936 8.9415 7.60825C9.20262 7.34714 9.33317 7.03325 9.33317 6.66658C9.33317 6.29992 9.20262 5.98603 8.9415 5.72492C8.68039 5.46381 8.3665 5.33325 7.99984 5.33325C7.63317 5.33325 7.31928 5.46381 7.05817 5.72492C6.79706 5.98603 6.6665 6.29992 6.6665 6.66658C6.6665 7.03325 6.79706 7.34714 7.05817 7.60825C7.31928 7.86936 7.63317 7.99992 7.99984 7.99992ZM7.99984 14.6666C6.21095 13.1444 4.87484 11.7305 3.9915 10.4249C3.10817 9.11936 2.6665 7.91103 2.6665 6.79992C2.6665 5.13325 3.20262 3.80547 4.27484 2.81659C5.34706 1.8277 6.58873 1.33325 7.99984 1.33325C9.41095 1.33325 10.6526 1.8277 11.7248 2.81659C12.7971 3.80547 13.3332 5.13325 13.3332 6.79992C13.3332 7.91103 12.8915 9.11936 12.0082 10.4249C11.1248 11.7305 9.78873 13.1444 7.99984 14.6666Z" fill="#1C1B1F" />
	</g>
</svg>
