<svg width="14" height="13" viewBox="0 0 14 13" fill="none" xmlns="http://www.w3.org/2000/svg">
	<path d="M4.0835 3.26659L5.95016 0.849919C6.0835 0.672141 6.24183 0.541585 6.42516 0.458252C6.6085 0.374919 6.80016 0.333252 7.00016 0.333252C7.20016 0.333252 7.39183 0.374919 7.57516 0.458252C7.7585 0.541585 7.91683 0.672141 8.05016 0.849919L9.91683 3.26659L12.7502 4.21659C13.0391 4.30547 13.2668 4.46936 13.4335 4.70825C13.6002 4.94714 13.6835 5.21103 13.6835 5.49992C13.6835 5.63325 13.6641 5.76659 13.6252 5.89992C13.5863 6.03325 13.5224 6.16103 13.4335 6.28325L11.6002 8.88325L11.6668 11.6166C11.6779 12.0055 11.5502 12.3333 11.2835 12.5999C11.0168 12.8666 10.7057 12.9999 10.3502 12.9999C10.3279 12.9999 10.2057 12.9833 9.9835 12.9499L7.00016 12.1166L4.01683 12.9499C3.96127 12.9721 3.90016 12.986 3.8335 12.9916C3.76683 12.9971 3.70572 12.9999 3.65016 12.9999C3.29461 12.9999 2.9835 12.8666 2.71683 12.5999C2.45016 12.3333 2.32238 12.0055 2.3335 11.6166L2.40016 8.86659L0.583496 6.28325C0.494607 6.16103 0.430718 6.03325 0.391829 5.89992C0.352941 5.76659 0.333496 5.63325 0.333496 5.49992C0.333496 5.22214 0.414052 4.96381 0.575163 4.72492C0.736274 4.48603 0.961274 4.31659 1.25016 4.21659L4.0835 3.26659Z" fill="#FAAB34" />
</svg>
