<svg width="16" height="16" viewBox="0 0 16 16" fill="none" xmlns="http://www.w3.org/2000/svg">
	<mask id="mask0_8_5592" style="mask-type:alpha" maskUnits="userSpaceOnUse" x="0" y="0" width="16" height="16">
		<rect width="16" height="16" fill="#D9D9D9" />
	</mask>
	<g mask="url(#mask0_8_5592)">
		<path d="M5.0835 4.26659L6.95016 1.84992C7.0835 1.67214 7.24183 1.54159 7.42516 1.45825C7.6085 1.37492 7.80016 1.33325 8.00016 1.33325C8.20016 1.33325 8.39183 1.37492 8.57516 1.45825C8.7585 1.54159 8.91683 1.67214 9.05016 1.84992L10.9168 4.26659L13.7502 5.21659C14.0391 5.30547 14.2668 5.46936 14.4335 5.70825C14.6002 5.94714 14.6835 6.21103 14.6835 6.49992C14.6835 6.63325 14.6641 6.76659 14.6252 6.89992C14.5863 7.03325 14.5224 7.16103 14.4335 7.28325L12.6002 9.88325L12.6668 12.6166C12.6779 13.0055 12.5502 13.3333 12.2835 13.5999C12.0168 13.8666 11.7057 13.9999 11.3502 13.9999C11.3279 13.9999 11.2057 13.9833 10.9835 13.9499L8.00016 13.1166L5.01683 13.9499C4.96127 13.9721 4.90016 13.986 4.8335 13.9916C4.76683 13.9971 4.70572 13.9999 4.65016 13.9999C4.29461 13.9999 3.9835 13.8666 3.71683 13.5999C3.45016 13.3333 3.32238 13.0055 3.3335 12.6166L3.40016 9.86659L1.5835 7.28325C1.49461 7.16103 1.43072 7.03325 1.39183 6.89992C1.35294 6.76659 1.3335 6.63325 1.3335 6.49992C1.3335 6.22214 1.41405 5.96381 1.57516 5.72492C1.73627 5.48603 1.96127 5.31659 2.25016 5.21659L5.0835 4.26659ZM5.90016 5.41659L2.66683 6.48325L4.7335 9.46659L4.66683 12.6499L8.00016 11.7333L11.3335 12.6666L11.2668 9.46659L13.3335 6.51659L10.1002 5.41659L8.00016 2.66659L5.90016 5.41659Z" fill="#FAAB34" />
	</g>
</svg>
