<svg width="122" height="32" viewBox="0 0 122 32" fill="none" xmlns="http://www.w3.org/2000/svg">
	<path d="M10.9542 11.2719C11.1469 11.2719 11.2914 11.3201 11.4359 11.4646C11.5804 11.6091 11.6286 11.7536 11.6286 11.9945V14.0176C11.6286 14.2103 11.5804 14.3548 11.4359 14.4993C11.3395 14.6438 11.1469 14.692 10.9542 14.692H3.68041V18.8347C3.68041 19.0755 3.63224 19.22 3.48773 19.3164C3.34322 19.4127 3.19871 19.5091 3.00603 19.5091H1.03103C0.790178 19.5091 0.645666 19.4609 0.501154 19.3164C0.356642 19.1719 0.308472 19.0274 0.308472 18.8347V1.20423C0.308472 0.770699 0.549325 0.529846 0.98286 0.529846H13.1219C13.3145 0.529846 13.5072 0.578017 13.6036 0.722529C13.6999 0.86704 13.7962 1.01155 13.7962 1.20423V3.2274C13.7962 3.46825 13.7481 3.61277 13.6036 3.75728C13.459 3.90179 13.3145 3.94996 13.1219 3.94996H3.68041V11.2719H10.9542Z" fill="#0B85C3" />
	<path d="M34.6542 19.5573C34.1725 19.5573 33.9316 19.4128 33.9316 19.0756C33.9316 18.8829 33.9316 18.7865 33.9316 18.7384C33.9316 18.6902 33.9798 18.642 33.9798 18.642L41.928 0.529877C41.9761 0.433536 42.0725 0.337194 42.1206 0.192682C42.217 0.0481706 42.4578 0 42.795 0H42.9395C43.1322 0 43.2767 0 43.3731 0.0481706C43.4694 0.0963412 43.5658 0.144512 43.6139 0.192682C43.6139 0.289024 43.6621 0.385365 43.6621 0.433536C43.6621 0.481706 43.7103 0.578047 43.7103 0.578047C44.3365 2.07134 44.9145 3.37194 45.3962 4.4317C45.8779 5.49145 46.3115 6.45486 46.6969 7.27376C47.0822 8.09266 47.4676 8.86339 47.8048 9.58595C48.142 10.3085 48.5273 11.0792 48.9127 11.8981C49.2981 12.717 49.7316 13.6805 50.1651 14.7402C50.6468 15.8 51.1767 17.1006 51.8029 18.5939L51.8511 18.7865C51.8511 18.8347 51.8993 18.9311 51.8993 18.9792C51.8993 19.0274 51.8993 19.0756 51.8993 19.0756C51.8993 19.4128 51.6584 19.5573 51.1767 19.5573H34.6542ZM38.6524 16.1372H47.1304L42.795 6.26218L38.6524 16.1372Z" fill="#FAAB34" />
	<path d="M63.8937 16.8597C64.6644 16.8597 65.4833 16.7152 66.2541 16.4262C67.0248 16.1371 67.7474 15.7518 68.3736 15.1737C68.4699 15.0774 68.5663 15.0292 68.7108 14.981C68.8553 14.9329 68.9516 14.8847 69.0961 14.8847C69.2888 14.8847 69.4333 14.9329 69.5297 15.0774L70.6376 16.6188C70.6858 16.7152 70.7339 16.8115 70.7339 16.9079C70.7339 17.1006 70.6858 17.2451 70.5413 17.3896C70.3967 17.5341 70.2522 17.6786 70.1559 17.7749C69.2888 18.4012 68.3736 18.931 67.3138 19.3164C66.3022 19.7018 65.1462 19.8944 63.9419 19.8944C62.5931 19.8944 61.2925 19.6536 60.0882 19.1237C58.884 18.5938 57.8242 17.9195 56.909 17.0042C55.9937 16.089 55.3193 15.0292 54.7895 13.825C54.2596 12.6207 54.0187 11.3201 54.0187 9.9713C54.0187 8.62253 54.2596 7.32192 54.7895 6.11765C55.3193 4.91339 55.9937 3.85364 56.909 2.93839C57.8242 2.02315 58.884 1.34876 60.0882 0.818887C61.2925 0.28901 62.5931 0.0481567 63.9419 0.0481567C64.9535 0.0481567 65.9651 0.192669 66.9285 0.529863C67.8919 0.867057 68.9035 1.34876 69.915 2.07132C70.3486 2.36035 70.5413 2.69754 70.5413 2.98656C70.5413 3.13108 70.4931 3.22742 70.4449 3.32376L69.337 4.96156C69.2407 5.15424 69.048 5.25058 68.8553 5.25058C68.8071 5.25058 68.7108 5.20241 68.6144 5.15424C68.5181 5.10607 68.3736 5.00973 68.2772 4.91339C67.651 4.43168 66.9766 4.04632 66.3022 3.75729C65.5797 3.46827 64.809 3.32376 63.9419 3.32376C63.0266 3.32376 62.1114 3.51644 61.2925 3.85364C60.4736 4.19083 59.751 4.72071 59.1248 5.29875C58.4986 5.92497 58.0169 6.64753 57.6797 7.46643C57.3425 8.28533 57.1498 9.1524 57.1498 10.1158C57.1498 11.0311 57.3425 11.9463 57.6797 12.7652C58.0169 13.5841 58.4986 14.3067 59.1248 14.9329C59.751 15.5591 60.4736 16.0408 61.2925 16.378C62.1114 16.7152 62.9303 16.8597 63.8937 16.8597Z" fill="#0B85C3" />
	<path d="M87.5455 0.529846H73.4797C73.1425 0.529846 72.998 0.674358 72.998 1.01155V3.32374C72.998 3.70911 73.1425 3.90179 73.4797 3.90179H78.7785V18.8347C78.7785 19.2682 79.0193 19.5091 79.4529 19.5091H81.5242C82.0059 19.5091 82.2467 19.2682 82.2467 18.8347V3.90179H87.5937C87.7382 3.90179 87.8827 3.85362 87.979 3.70911C88.0754 3.56459 88.0754 3.42008 88.0754 3.32374V1.01155C88.0272 0.674358 87.8827 0.529846 87.5455 0.529846Z" fill="#0B85C3" />
	<path d="M87.1601 19.5573C86.6784 19.5573 86.4376 19.4127 86.4376 19.0756C86.4376 18.8829 86.4376 18.7865 86.4376 18.7384C86.4376 18.6902 86.4857 18.642 86.4857 18.642L94.4339 0.578034C94.482 0.481692 94.5784 0.385351 94.6266 0.240839C94.7229 0.0963274 94.9156 0.0481567 95.2528 0.0481567H95.3973C95.59 0.0481567 95.7345 0.0481567 95.8308 0.0963274C95.9272 0.144498 96.0235 0.192669 96.0717 0.240839C96.1199 0.28901 96.168 0.385351 96.168 0.433522C96.168 0.481692 96.2162 0.578034 96.2162 0.578034C96.8424 2.07132 97.4205 3.37193 97.9022 4.43168C98.3839 5.49144 98.8174 6.45485 99.2028 7.27375C99.5881 8.09265 99.9735 8.86338 100.311 9.58594C100.648 10.3085 101.033 11.0792 101.419 11.8981C101.804 12.717 102.238 13.6804 102.671 14.7402C103.153 15.7999 103.683 17.1006 104.309 18.5938L104.357 18.7865C104.357 18.8347 104.405 18.931 104.405 18.9792C104.405 19.0274 104.405 19.0756 104.405 19.0756C104.405 19.4127 104.164 19.5573 103.731 19.5573H87.1601ZM91.2064 16.1371H99.6845L95.3491 6.26217L91.2064 16.1371Z" fill="#FAAB34" />
	<path d="M121.169 16.1371C121.361 16.1371 121.506 16.1853 121.65 16.3298C121.795 16.4743 121.843 16.667 121.843 16.8597V18.8347C121.843 19.0274 121.795 19.1719 121.65 19.3164C121.506 19.4609 121.361 19.5091 121.169 19.5091H108.596C108.163 19.5091 107.922 19.2682 107.922 18.8347V1.20423C107.922 1.01155 107.97 0.86704 108.114 0.722529C108.259 0.578017 108.403 0.529846 108.644 0.529846H110.619C110.812 0.529846 110.956 0.578017 111.101 0.722529C111.245 0.81887 111.294 1.01155 111.294 1.20423V16.1371H121.169Z" fill="#0B85C3" />
	<path d="M29.1627 11.5609C29.5962 11.1756 29.9816 10.6938 30.2706 10.2121C30.5596 9.73043 30.8005 9.20056 30.9932 8.62251C31.1377 8.04446 31.234 7.46641 31.234 6.88837C31.234 6.0213 31.0895 5.2024 30.7523 4.43167C30.4151 3.66094 30.0297 2.98655 29.4517 2.4085C28.8736 1.83045 28.2474 1.34875 27.4767 1.01155C26.706 0.674358 25.9352 0.529846 25.02 0.529846H17.6981C17.4572 0.529846 17.4572 0.529846 17.4572 0.722529V18.7865C17.4572 19.2682 17.6981 19.5572 18.1798 19.5572H20.1548C20.3956 19.5572 20.5401 19.5091 20.6846 19.3646C20.781 19.22 20.8292 19.0755 20.8292 18.8829V13.1505H23.9121L26.995 18.7865C27.1395 19.0274 27.284 19.1719 27.4767 19.3164C27.6694 19.4609 27.9102 19.5572 28.1511 19.5572L30.1261 19.4609C30.2706 19.4609 30.3669 19.4127 30.5115 19.3164C30.6078 19.22 30.656 19.1237 30.656 18.9792C30.656 18.8829 30.6078 18.7383 30.5596 18.642L27.284 12.6688L27.7176 12.5725C28.2474 12.2835 28.7291 11.9463 29.1627 11.5609ZM25.1645 9.92312H20.8292V3.61277H25.1645C26.8987 3.61277 28.3438 5.00971 28.3438 6.79203C28.2956 8.52617 26.8987 9.92312 25.1645 9.92312Z" fill="#0B85C3" />
	<path d="M43.9818 29.8298V23.9498H44.6594V26.1203H44.7168C44.7665 26.0438 44.8355 25.9461 44.9235 25.8275C45.0135 25.7069 45.1417 25.5997 45.3082 25.5059C45.4767 25.4102 45.7044 25.3624 45.9916 25.3624C46.3629 25.3624 46.6902 25.4552 46.9735 25.6409C47.2568 25.8265 47.4779 26.0897 47.6367 26.4304C47.7956 26.7711 47.875 27.1731 47.875 27.6363C47.875 28.1033 47.7956 28.5082 47.6367 28.8508C47.4779 29.1915 47.2577 29.4556 46.9764 29.6432C46.695 29.8289 46.3706 29.9217 46.003 29.9217C45.7198 29.9217 45.4929 29.8748 45.3226 29.781C45.1522 29.6853 45.0211 29.5772 44.9292 29.4566C44.8374 29.3341 44.7665 29.2326 44.7168 29.1522H44.6364V29.8298H43.9818ZM44.6479 27.6248C44.6479 27.9579 44.6967 28.2517 44.7943 28.5062C44.8919 28.7589 45.0345 28.957 45.2221 29.1006C45.4097 29.2422 45.6394 29.313 45.9112 29.313C46.1945 29.313 46.4308 29.2384 46.6203 29.0891C46.8117 28.9379 46.9553 28.735 47.051 28.4804C47.1486 28.2239 47.1974 27.9387 47.1974 27.6248C47.1974 27.3147 47.1496 27.0353 47.0539 26.7864C46.9601 26.5357 46.8175 26.3376 46.6261 26.1921C46.4366 26.0447 46.1983 25.971 45.9112 25.971C45.6355 25.971 45.4039 26.0409 45.2164 26.1806C45.0288 26.3184 44.8871 26.5118 44.7914 26.7606C44.6957 27.0075 44.6479 27.2956 44.6479 27.6248ZM51.6908 28.0268V25.4198H52.3683V29.8298H51.6908V29.0833H51.6448C51.5415 29.3073 51.3807 29.4977 51.1625 29.6547C50.9443 29.8097 50.6686 29.8873 50.3356 29.8873C50.06 29.8873 49.815 29.827 49.6006 29.7064C49.3862 29.5839 49.2178 29.4001 49.0953 29.1551C48.9728 28.9082 48.9115 28.5972 48.9115 28.222V25.4198H49.5891V28.1761C49.5891 28.4976 49.6791 28.7541 49.859 28.9455C50.0408 29.1369 50.2724 29.2326 50.5538 29.2326C50.7222 29.2326 50.8935 29.1896 51.0677 29.1034C51.2438 29.0173 51.3912 28.8852 51.5099 28.7072C51.6305 28.5292 51.6908 28.3024 51.6908 28.0268ZM50.3356 24.8226L51.0361 23.4904H51.8286L50.9328 24.8226H50.3356ZM56.7332 26.4074L56.1245 26.5797C56.0862 26.4783 56.0298 26.3797 55.9551 26.284C55.8824 26.1864 55.7828 26.106 55.6565 26.0428C55.5302 25.9796 55.3684 25.9481 55.1713 25.9481C54.9014 25.9481 54.6765 26.0103 54.4966 26.1347C54.3186 26.2572 54.2296 26.4132 54.2296 26.6027C54.2296 26.7711 54.2908 26.9042 54.4133 27.0018C54.5358 27.0994 54.7272 27.1807 54.9875 27.2458L55.6422 27.4066C56.0365 27.5023 56.3303 27.6487 56.5236 27.8459C56.7169 28.0411 56.8136 28.2928 56.8136 28.601C56.8136 28.8536 56.7408 29.0795 56.5954 29.2786C56.4518 29.4776 56.2508 29.6346 55.9924 29.7494C55.734 29.8643 55.4335 29.9217 55.0909 29.9217C54.6411 29.9217 54.2688 29.8241 53.974 29.6289C53.6793 29.4336 53.4926 29.1484 53.4142 28.7733L54.0573 28.6125C54.1185 28.8498 54.2343 29.0278 54.4047 29.1465C54.577 29.2652 54.8019 29.3245 55.0794 29.3245C55.3952 29.3245 55.646 29.2575 55.8316 29.1235C56.0192 28.9876 56.113 28.8249 56.113 28.6354C56.113 28.4823 56.0594 28.3541 55.9522 28.2507C55.845 28.1454 55.6804 28.067 55.4584 28.0153L54.7234 27.843C54.3195 27.7473 54.0228 27.599 53.8333 27.398C53.6458 27.1951 53.552 26.9415 53.552 26.6371C53.552 26.3883 53.6218 26.1682 53.7616 25.9768C53.9032 25.7854 54.0956 25.6351 54.3387 25.526C54.5837 25.4169 54.8612 25.3624 55.1713 25.3624C55.6077 25.3624 55.9503 25.4581 56.1992 25.6495C56.4499 25.8409 56.6279 26.0935 56.7332 26.4074ZM60.8425 31.4836V29.1522H60.7851C60.7353 29.2326 60.6645 29.3341 60.5726 29.4566C60.4807 29.5772 60.3496 29.6853 60.1793 29.781C60.0089 29.8748 59.7821 29.9217 59.4988 29.9217C59.1313 29.9217 58.8069 29.8289 58.5255 29.6432C58.2441 29.4556 58.024 29.1915 57.8651 28.8508C57.7063 28.5082 57.6268 28.1033 57.6268 27.6363C57.6268 27.1731 57.7063 26.7711 57.8651 26.4304C58.024 26.0897 58.2451 25.8265 58.5284 25.6409C58.8116 25.4552 59.139 25.3624 59.5103 25.3624C59.7974 25.3624 60.0242 25.4102 60.1907 25.5059C60.3592 25.5997 60.4874 25.7069 60.5755 25.8275C60.6654 25.9461 60.7353 26.0438 60.7851 26.1203H60.8655V25.4198H61.5201V31.4836H60.8425ZM59.5907 29.313C59.8625 29.313 60.0922 29.2422 60.2797 29.1006C60.4673 28.957 60.6099 28.7589 60.7075 28.5062C60.8052 28.2517 60.854 27.9579 60.854 27.6248C60.854 27.2956 60.8061 27.0075 60.7104 26.7606C60.6147 26.5118 60.4731 26.3184 60.2855 26.1806C60.0979 26.0409 59.8663 25.971 59.5907 25.971C59.3036 25.971 59.0643 26.0447 58.8729 26.1921C58.6834 26.3376 58.5408 26.5357 58.4451 26.7864C58.3513 27.0353 58.3044 27.3147 58.3044 27.6248C58.3044 27.9387 58.3523 28.2239 58.448 28.4804C58.5456 28.735 58.6891 28.9379 58.8786 29.0891C59.07 29.2384 59.3074 29.313 59.5907 29.313ZM65.5397 28.0268V25.4198H66.2173V29.8298H65.5397V29.0833H65.4937C65.3904 29.3073 65.2296 29.4977 65.0114 29.6547C64.7932 29.8097 64.5175 29.8873 64.1845 29.8873C63.9089 29.8873 63.6639 29.827 63.4495 29.7064C63.2351 29.5839 63.0667 29.4001 62.9442 29.1551C62.8217 28.9082 62.7604 28.5972 62.7604 28.222V25.4198H63.438V28.1761C63.438 28.4976 63.528 28.7541 63.7079 28.9455C63.8897 29.1369 64.1213 29.2326 64.4027 29.2326C64.5711 29.2326 64.7424 29.1896 64.9166 29.1034C65.0927 29.0173 65.2401 28.8852 65.3588 28.7072C65.4794 28.5292 65.5397 28.3024 65.5397 28.0268ZM69.3073 29.9217C68.8824 29.9217 68.5158 29.8279 68.2077 29.6403C67.9014 29.4508 67.665 29.1867 67.4985 28.8479C67.3339 28.5072 67.2516 28.111 67.2516 27.6593C67.2516 27.2075 67.3339 26.8094 67.4985 26.4649C67.665 26.1184 67.8966 25.8485 68.1933 25.6552C68.4919 25.46 68.8403 25.3624 69.2384 25.3624C69.4681 25.3624 69.6949 25.4006 69.9189 25.4772C70.1428 25.5538 70.3467 25.6782 70.5304 25.8504C70.7142 26.0208 70.8606 26.2467 70.9697 26.528C71.0788 26.8094 71.1333 27.1559 71.1333 27.5674V27.8545H67.7339V27.2688H70.4443C70.4443 27.02 70.3945 26.7979 70.295 26.6027C70.1974 26.4074 70.0576 26.2534 69.8758 26.1404C69.6959 26.0275 69.4834 25.971 69.2384 25.971C68.9685 25.971 68.735 26.038 68.5378 26.172C68.3426 26.3041 68.1923 26.4764 68.0871 26.6888C67.9818 26.9013 67.9292 27.1291 67.9292 27.3721V27.7626C67.9292 28.0957 67.9866 28.378 68.1014 28.6096C68.2182 28.8393 68.3799 29.0144 68.5867 29.135C68.7934 29.2537 69.0336 29.313 69.3073 29.313C69.4853 29.313 69.6461 29.2881 69.7897 29.2384C69.9351 29.1867 70.0605 29.1101 70.1658 29.0087C70.271 28.9053 70.3524 28.7771 70.4098 28.624L71.0644 28.8077C70.9955 29.0297 70.8797 29.225 70.717 29.3934C70.5543 29.5599 70.3534 29.6901 70.1141 29.7839C69.8748 29.8758 69.6059 29.9217 69.3073 29.9217ZM73.8293 29.9217C73.4618 29.9217 73.1374 29.8289 72.856 29.6432C72.5747 29.4556 72.3545 29.1915 72.1957 28.8508C72.0368 28.5082 71.9574 28.1033 71.9574 27.6363C71.9574 27.1731 72.0368 26.7711 72.1957 26.4304C72.3545 26.0897 72.5756 25.8265 72.8589 25.6409C73.1422 25.4552 73.4695 25.3624 73.8408 25.3624C74.1279 25.3624 74.3548 25.4102 74.5213 25.5059C74.6897 25.5997 74.818 25.7069 74.906 25.8275C74.996 25.9461 75.0658 26.0438 75.1156 26.1203H75.173V23.9498H75.8506V29.8298H75.196V29.1522H75.1156C75.0658 29.2326 74.995 29.3341 74.9031 29.4566C74.8113 29.5772 74.6801 29.6853 74.5098 29.781C74.3394 29.8748 74.1126 29.9217 73.8293 29.9217ZM73.9212 29.313C74.193 29.313 74.4227 29.2422 74.6103 29.1006C74.7979 28.957 74.9405 28.7589 75.0381 28.5062C75.1357 28.2517 75.1845 27.9579 75.1845 27.6248C75.1845 27.2956 75.1367 27.0075 75.041 26.7606C74.9453 26.5118 74.8036 26.3184 74.616 26.1806C74.4284 26.0409 74.1968 25.971 73.9212 25.971C73.6341 25.971 73.3948 26.0447 73.2034 26.1921C73.0139 26.3376 72.8713 26.5357 72.7756 26.7864C72.6818 27.0353 72.6349 27.3147 72.6349 27.6248C72.6349 27.9387 72.6828 28.2239 72.7785 28.4804C72.8761 28.735 73.0197 28.9379 73.2092 29.0891C73.4006 29.2384 73.6379 29.313 73.9212 29.313ZM78.4834 29.9332C78.204 29.9332 77.9504 29.8806 77.7226 29.7753C77.4948 29.6681 77.3139 29.514 77.1799 29.313C77.046 29.1101 76.979 28.8651 76.979 28.578C76.979 28.3254 77.0287 28.1206 77.1283 27.9636C77.2278 27.8047 77.3608 27.6803 77.5274 27.5904C77.6939 27.5004 77.8776 27.4334 78.0786 27.3894C78.2815 27.3434 78.4854 27.3071 78.6902 27.2803C78.9581 27.2458 79.1754 27.22 79.3419 27.2027C79.5103 27.1836 79.6329 27.152 79.7094 27.108C79.7879 27.064 79.8271 26.9874 79.8271 26.8783V26.8553C79.8271 26.5721 79.7496 26.3519 79.5946 26.195C79.4414 26.038 79.2089 25.9595 78.8969 25.9595C78.5734 25.9595 78.3198 26.0304 78.136 26.172C77.9523 26.3137 77.8231 26.4649 77.7484 26.6257L77.1053 26.396C77.2201 26.128 77.3733 25.9194 77.5647 25.7701C77.758 25.6188 77.9686 25.5136 78.1963 25.4542C78.426 25.393 78.6519 25.3624 78.8739 25.3624C79.0156 25.3624 79.1783 25.3796 79.362 25.414C79.5477 25.4466 79.7266 25.5145 79.8989 25.6179C80.0731 25.7212 80.2176 25.8772 80.3324 26.0859C80.4473 26.2945 80.5047 26.574 80.5047 26.9242V29.8298H79.8271V29.2326H79.7927C79.7467 29.3283 79.6702 29.4307 79.563 29.5398C79.4558 29.649 79.3132 29.7418 79.1352 29.8183C78.9572 29.8949 78.7399 29.9332 78.4834 29.9332ZM78.5868 29.3245C78.8548 29.3245 79.0806 29.2719 79.2644 29.1666C79.4501 29.0613 79.5898 28.9254 79.6836 28.7589C79.7793 28.5924 79.8271 28.4172 79.8271 28.2335V27.6133C79.7984 27.6478 79.7353 27.6794 79.6376 27.7081C79.5419 27.7349 79.4309 27.7588 79.3046 27.7798C79.1802 27.799 79.0586 27.8162 78.94 27.8315C78.8232 27.8449 78.7284 27.8564 78.6557 27.866C78.4796 27.8889 78.315 27.9263 78.1619 27.978C78.0107 28.0277 77.8882 28.1033 77.7944 28.2048C77.7025 28.3043 77.6566 28.4402 77.6566 28.6125C77.6566 28.8479 77.7436 29.0259 77.9178 29.1465C78.0939 29.2652 78.3169 29.3245 78.5868 29.3245ZM85.6807 29.9217C85.3131 29.9217 84.9887 29.8289 84.7073 29.6432C84.426 29.4556 84.2058 29.1915 84.047 28.8508C83.8881 28.5082 83.8087 28.1033 83.8087 27.6363C83.8087 27.1731 83.8881 26.7711 84.047 26.4304C84.2058 26.0897 84.4269 25.8265 84.7102 25.6409C84.9935 25.4552 85.3208 25.3624 85.6921 25.3624C85.9792 25.3624 86.2061 25.4102 86.3726 25.5059C86.541 25.5997 86.6693 25.7069 86.7573 25.8275C86.8473 25.9461 86.9172 26.0438 86.9669 26.1203H87.0243V23.9498H87.7019V29.8298H87.0473V29.1522H86.9669C86.9172 29.2326 86.8463 29.3341 86.7545 29.4566C86.6626 29.5772 86.5315 29.6853 86.3611 29.781C86.1908 29.8748 85.9639 29.9217 85.6807 29.9217ZM85.7725 29.313C86.0443 29.313 86.274 29.2422 86.4616 29.1006C86.6492 28.957 86.7918 28.7589 86.8894 28.5062C86.987 28.2517 87.0358 27.9579 87.0358 27.6248C87.0358 27.2956 86.988 27.0075 86.8923 26.7606C86.7966 26.5118 86.6549 26.3184 86.4673 26.1806C86.2798 26.0409 86.0482 25.971 85.7725 25.971C85.4854 25.971 85.2462 26.0447 85.0547 26.1921C84.8652 26.3376 84.7226 26.5357 84.6269 26.7864C84.5332 27.0353 84.4863 27.3147 84.4863 27.6248C84.4863 27.9387 84.5341 28.2239 84.6298 28.4804C84.7274 28.735 84.871 28.9379 85.0605 29.0891C85.2519 29.2384 85.4892 29.313 85.7725 29.313ZM90.886 29.9217C90.4611 29.9217 90.0945 29.8279 89.7864 29.6403C89.4801 29.4508 89.2437 29.1867 89.0772 28.8479C88.9126 28.5072 88.8303 28.111 88.8303 27.6593C88.8303 27.2075 88.9126 26.8094 89.0772 26.4649C89.2437 26.1184 89.4753 25.8485 89.772 25.6552C90.0706 25.46 90.419 25.3624 90.8171 25.3624C91.0468 25.3624 91.2736 25.4006 91.4976 25.4772C91.7215 25.5538 91.9254 25.6782 92.1091 25.8504C92.2929 26.0208 92.4393 26.2467 92.5484 26.528C92.6575 26.8094 92.7121 27.1559 92.7121 27.5674V27.8545H89.3126V27.2688H92.023C92.023 27.02 91.9732 26.7979 91.8737 26.6027C91.7761 26.4074 91.6363 26.2534 91.4545 26.1404C91.2746 26.0275 91.0621 25.971 90.8171 25.971C90.5472 25.971 90.3137 26.038 90.1165 26.172C89.9213 26.3041 89.7711 26.4764 89.6658 26.6888C89.5605 26.9013 89.5079 27.1291 89.5079 27.3721V27.7626C89.5079 28.0957 89.5653 28.378 89.6801 28.6096C89.7969 28.8393 89.9586 29.0144 90.1654 29.135C90.3721 29.2537 90.6123 29.313 90.886 29.313C91.064 29.313 91.2248 29.2881 91.3684 29.2384C91.5138 29.1867 91.6392 29.1101 91.7445 29.0087C91.8498 28.9053 91.9311 28.7771 91.9885 28.624L92.6431 28.8077C92.5742 29.0297 92.4584 29.225 92.2957 29.3934C92.133 29.5599 91.9321 29.6901 91.6928 29.7839C91.4535 29.8758 91.1846 29.9217 90.886 29.9217ZM97.9346 25.4198V25.994H95.6492V25.4198H97.9346ZM96.3153 24.3632H96.9929V28.5665C96.9929 28.7579 97.0207 28.9015 97.0762 28.9972C97.1336 29.091 97.2063 29.1542 97.2944 29.1867C97.3843 29.2173 97.4791 29.2326 97.5786 29.2326C97.6533 29.2326 97.7145 29.2288 97.7624 29.2212C97.8102 29.2116 97.8485 29.2039 97.8772 29.1982L98.015 29.8069C97.9691 29.8241 97.905 29.8413 97.8227 29.8585C97.7404 29.8777 97.636 29.8873 97.5097 29.8873C97.3183 29.8873 97.1307 29.8461 96.947 29.7638C96.7651 29.6815 96.6139 29.5561 96.4933 29.3877C96.3747 29.2192 96.3153 29.0068 96.3153 28.7503V24.3632ZM100.252 29.9332C99.9722 29.9332 99.7186 29.8806 99.4908 29.7753C99.263 29.6681 99.0821 29.514 98.9482 29.313C98.8142 29.1101 98.7472 28.8651 98.7472 28.578C98.7472 28.3254 98.7969 28.1206 98.8965 27.9636C98.996 27.8047 99.129 27.6803 99.2956 27.5904C99.4621 27.5004 99.6458 27.4334 99.8468 27.3894C100.05 27.3434 100.254 27.3071 100.458 27.2803C100.726 27.2458 100.944 27.22 101.11 27.2027C101.279 27.1836 101.401 27.152 101.478 27.108C101.556 27.064 101.595 26.9874 101.595 26.8783V26.8553C101.595 26.5721 101.518 26.3519 101.363 26.195C101.21 26.038 100.977 25.9595 100.665 25.9595C100.342 25.9595 100.088 26.0304 99.9042 26.172C99.7205 26.3137 99.5913 26.4649 99.5166 26.6257L98.8735 26.396C98.9883 26.128 99.1415 25.9194 99.3329 25.7701C99.5262 25.6188 99.7368 25.5136 99.9645 25.4542C100.194 25.393 100.42 25.3624 100.642 25.3624C100.784 25.3624 100.946 25.3796 101.13 25.414C101.316 25.4466 101.495 25.5145 101.667 25.6179C101.841 25.7212 101.986 25.8772 102.101 26.0859C102.215 26.2945 102.273 26.574 102.273 26.9242V29.8298H101.595V29.2326H101.561C101.515 29.3283 101.438 29.4307 101.331 29.5398C101.224 29.649 101.081 29.7418 100.903 29.8183C100.725 29.8949 100.508 29.9332 100.252 29.9332ZM100.355 29.3245C100.623 29.3245 100.849 29.2719 101.033 29.1666C101.218 29.0613 101.358 28.9254 101.452 28.7589C101.547 28.5924 101.595 28.4172 101.595 28.2335V27.6133C101.567 27.6478 101.503 27.6794 101.406 27.7081C101.31 27.7349 101.199 27.7588 101.073 27.7798C100.948 27.799 100.827 27.8162 100.708 27.8315C100.591 27.8449 100.497 27.8564 100.424 27.866C100.248 27.8889 100.083 27.9263 99.9301 27.978C99.7789 28.0277 99.6564 28.1033 99.5626 28.2048C99.4707 28.3043 99.4248 28.4402 99.4248 28.6125C99.4248 28.8479 99.5118 29.0259 99.686 29.1465C99.8621 29.2652 100.085 29.3245 100.355 29.3245ZM104.187 23.9498V29.8298H103.51V23.9498H104.187ZM107.277 29.9217C106.852 29.9217 106.486 29.8279 106.178 29.6403C105.871 29.4508 105.635 29.1867 105.468 28.8479C105.304 28.5072 105.222 28.111 105.222 27.6593C105.222 27.2075 105.304 26.8094 105.468 26.4649C105.635 26.1184 105.867 25.8485 106.163 25.6552C106.462 25.46 106.81 25.3624 107.208 25.3624C107.438 25.3624 107.665 25.4006 107.889 25.4772C108.113 25.5538 108.317 25.6782 108.5 25.8504C108.684 26.0208 108.831 26.2467 108.94 26.528C109.049 26.8094 109.103 27.1559 109.103 27.5674V27.8545H105.704V27.2688H108.414C108.414 27.02 108.365 26.7979 108.265 26.6027C108.167 26.4074 108.028 26.2534 107.846 26.1404C107.666 26.0275 107.453 25.971 107.208 25.971C106.939 25.971 106.705 26.038 106.508 26.172C106.313 26.3041 106.162 26.4764 106.057 26.6888C105.952 26.9013 105.899 27.1291 105.899 27.3721V27.7626C105.899 28.0957 105.957 28.378 106.071 28.6096C106.188 28.8393 106.35 29.0144 106.557 29.135C106.763 29.2537 107.004 29.313 107.277 29.313C107.455 29.313 107.616 29.2881 107.76 29.2384C107.905 29.1867 108.03 29.1101 108.136 29.0087C108.241 28.9053 108.322 28.7771 108.38 28.624L109.034 28.8077C108.966 29.0297 108.85 29.225 108.687 29.3934C108.524 29.5599 108.323 29.6901 108.084 29.7839C107.845 29.8758 107.576 29.9217 107.277 29.9217ZM110.812 27.1769V29.8298H110.134V25.4198H110.789V26.1088H110.846C110.949 25.8849 111.106 25.705 111.317 25.5691C111.528 25.4313 111.799 25.3624 112.132 25.3624C112.431 25.3624 112.692 25.4236 112.916 25.5461C113.14 25.6667 113.314 25.8504 113.439 26.0974C113.563 26.3424 113.625 26.6524 113.625 27.0276V29.8298H112.948V27.0735C112.948 26.7271 112.858 26.4572 112.678 26.2639C112.498 26.0687 112.251 25.971 111.937 25.971C111.721 25.971 111.528 26.0179 111.357 26.1117C111.189 26.2055 111.056 26.3424 110.958 26.5223C110.86 26.7022 110.812 26.9204 110.812 27.1769ZM116.781 25.4198V25.994H114.496V25.4198H116.781ZM115.162 24.3632H115.84V28.5665C115.84 28.7579 115.867 28.9015 115.923 28.9972C115.98 29.091 116.053 29.1542 116.141 29.1867C116.231 29.2173 116.326 29.2326 116.425 29.2326C116.5 29.2326 116.561 29.2288 116.609 29.2212C116.657 29.2116 116.695 29.2039 116.724 29.1982L116.862 29.8069C116.816 29.8241 116.752 29.8413 116.669 29.8585C116.587 29.8777 116.483 29.8873 116.357 29.8873C116.165 29.8873 115.978 29.8461 115.794 29.7638C115.612 29.6815 115.461 29.5561 115.34 29.3877C115.221 29.2192 115.162 29.0068 115.162 28.7503V24.3632ZM119.545 29.9217C119.147 29.9217 118.797 29.827 118.497 29.6375C118.198 29.448 117.965 29.1829 117.796 28.8422C117.63 28.5015 117.547 28.1033 117.547 27.6478C117.547 27.1884 117.63 26.7874 117.796 26.4448C117.965 26.1021 118.198 25.8361 118.497 25.6466C118.797 25.4571 119.147 25.3624 119.545 25.3624C119.943 25.3624 120.291 25.4571 120.59 25.6466C120.891 25.8361 121.124 26.1021 121.291 26.4448C121.459 26.7874 121.543 27.1884 121.543 27.6478C121.543 28.1033 121.459 28.5015 121.291 28.8422C121.124 29.1829 120.891 29.448 120.59 29.6375C120.291 29.827 119.943 29.9217 119.545 29.9217ZM119.545 29.313C119.847 29.313 120.096 29.2355 120.291 29.0805C120.487 28.9254 120.631 28.7216 120.725 28.4689C120.819 28.2163 120.866 27.9425 120.866 27.6478C120.866 27.353 120.819 27.0783 120.725 26.8238C120.631 26.5692 120.487 26.3634 120.291 26.2065C120.096 26.0495 119.847 25.971 119.545 25.971C119.243 25.971 118.994 26.0495 118.798 26.2065C118.603 26.3634 118.459 26.5692 118.365 26.8238C118.271 27.0783 118.224 27.353 118.224 27.6478C118.224 27.9425 118.271 28.2163 118.365 28.4689C118.459 28.7216 118.603 28.9254 118.798 29.0805C118.994 29.2355 119.243 29.313 119.545 29.313Z" fill="#B5B5B5" />
</svg>
